<svg width="61" height="58" viewBox="0 0 61 58" fill="none" xmlns="http://www.w3.org/2000/svg">
<path d="M48.295 42.8734C49.0757 42.8574 49.8207 42.4578 50.2024 41.7966L51.9315 38.8017C52.3357 38.1016 52.3093 37.2566 51.9104 36.6113L35.2854 8.3952C34.925 7.77226 34.0447 7.78261 33.6854 8.40493L29.1942 16.1839C28.8574 16.7673 28.8516 17.49 29.2344 18.0741L39.3135 33.4873L20.7685 32.7375C20.1098 32.7202 19.4483 33.0643 19.1115 33.6477L14.6203 41.4267C14.261 42.049 14.7307 42.8388 15.4504 42.8395L48.356 42.8568L48.295 42.8734Z" fill="#003E29"/>
<path d="M8.96556 20.8397C8.698 21.3031 8.78114 21.8145 9.10861 22.0036L44.4248 42.3934C44.7742 42.5951 45.2535 42.3698 45.5044 41.9353L49.5679 34.8971C49.8355 34.4336 49.7523 33.9222 49.4248 33.7332L14.1305 13.3559C13.7811 13.1543 13.3018 13.3795 13.0509 13.814L8.98739 20.8523L8.96556 20.8397Z" fill="#003E29"/>
</svg>
